<?xml version="1.0" standalone="no"?>
<!DOCTYPE svg PUBLIC "-//W3C//DTD SVG 20010904//EN"
 "http://www.w3.org/TR/2001/REC-SVG-20010904/DTD/svg10.dtd">
<svg version="1.0" xmlns="http://www.w3.org/2000/svg"
 width="513.000000pt" height="513.000000pt" viewBox="0 0 513.000000 513.000000"
 preserveAspectRatio="xMidYMid meet">
<metadata>
Created by potrace 1.14, written by Peter Selinger 2001-2017
</metadata>
<g transform="translate(0.000000,513.000000) scale(0.100000,-0.100000)"
fill="#000000" stroke="none">
<path d="M2592 5079 c-141 -70 -113 -284 41 -319 71 -16 140 14 185 81 32 45
28 138 -7 187 -48 69 -140 90 -219 51z"/>
<path d="M2117 5046 c-50 -18 -76 -42 -98 -91 -62 -135 59 -283 200 -245 80
21 131 86 131 165 0 86 -49 153 -128 175 -47 13 -58 12 -105 -4z"/>
<path d="M3090 5028 c-112 -57 -120 -205 -16 -282 39 -30 143 -30 182 0 73 54
94 145 52 219 -26 45 -93 85 -143 85 -17 0 -51 -10 -75 -22z"/>
<path d="M1630 4899 c-133 -53 -139 -253 -10 -319 108 -55 237 13 255 134 11
72 -34 153 -102 182 -37 16 -107 17 -143 3z"/>
<path d="M3560 4868 c-55 -38 -74 -72 -74 -133 0 -156 191 -212 286 -85 47 63
27 170 -40 215 -49 34 -125 34 -172 3z"/>
<path d="M1207 4666 c-76 -28 -117 -86 -117 -166 0 -82 46 -144 125 -170 103
-34 225 59 225 170 0 115 -127 204 -233 166z"/>
<path d="M4014 4636 c-70 -31 -99 -114 -66 -189 25 -57 70 -87 130 -87 114 0
182 109 130 209 -38 72 -118 100 -194 67z"/>
<path d="M2566 4630 c-83 -26 -122 -132 -76 -207 25 -42 68 -63 126 -63 40 0
51 5 84 38 51 51 60 99 32 158 -30 61 -102 93 -166 74z"/>
<path d="M2063 4561 c-101 -46 -118 -168 -33 -245 35 -31 47 -36 91 -36 61 0
102 22 131 69 46 73 17 168 -62 209 -54 27 -73 27 -127 3z"/>
<path d="M3043 4565 c-81 -35 -96 -141 -29 -202 106 -97 261 32 186 155 -20
33 -72 62 -107 62 -10 -1 -33 -7 -50 -15z"/>
<path d="M1599 4387 c-139 -74 -105 -273 51 -302 52 -10 115 19 151 68 23 32
29 50 29 92 0 66 -29 112 -90 143 -56 28 -86 28 -141 -1z"/>
<path d="M3513 4395 c-37 -16 -63 -60 -63 -106 0 -22 10 -41 34 -65 28 -28 42
-34 76 -34 34 0 48 6 76 34 24 24 34 43 34 65 0 47 -27 91 -65 107 -42 17 -51
17 -92 -1z"/>
<path d="M841 4350 c-105 -24 -161 -142 -112 -237 27 -55 72 -85 132 -91 61
-6 99 10 143 58 107 119 -5 305 -163 270z"/>
<path d="M4424 4319 c-18 -5 -46 -26 -64 -46 -30 -33 -32 -41 -28 -90 4 -42
11 -60 33 -83 51 -53 136 -59 187 -13 109 98 11 273 -128 232z"/>
<path d="M1188 4110 c-51 -28 -82 -82 -82 -146 0 -169 215 -227 312 -84 20 29
23 44 20 93 -5 64 -25 98 -78 135 -42 28 -120 29 -172 2z"/>
<path d="M2645 4118 c-52 -30 -62 -102 -20 -143 35 -36 97 -35 130 1 69 74
-23 192 -110 142z"/>
<path d="M3910 4110 c-46 -46 -32 -122 27 -147 39 -16 68 -10 101 20 31 29 30
90 -3 122 -31 32 -96 34 -125 5z"/>
<path d="M2164 4081 c-39 -17 -74 -69 -74 -113 0 -55 51 -108 104 -108 52 0
90 23 111 67 16 33 16 41 4 77 -22 62 -92 99 -145 77z"/>
<path d="M3122 4007 c-28 -30 -28 -68 1 -95 46 -44 117 -14 117 48 0 63 -75
93 -118 47z"/>
<path d="M480 3938 c-57 -39 -75 -72 -75 -137 0 -47 5 -64 27 -93 72 -94 197
-89 266 12 44 65 18 176 -51 219 -48 29 -123 28 -167 -1z"/>
<path d="M4725 3916 c-60 -26 -90 -108 -61 -164 24 -46 63 -72 108 -72 83 0
134 56 125 137 -5 50 -28 80 -74 99 -40 17 -59 17 -98 0z"/>
<path d="M1704 3886 c-70 -32 -99 -110 -65 -179 25 -53 65 -77 125 -77 57 0
110 42 126 100 28 104 -87 201 -186 156z"/>
<path d="M3572 3778 c-33 -33 6 -96 52 -84 29 7 45 49 29 75 -13 20 -64 26
-81 9z"/>
<path d="M910 3771 c-82 -25 -125 -74 -136 -154 -16 -118 109 -224 221 -187
44 14 91 53 110 91 19 36 19 122 0 158 -20 39 -69 78 -113 91 -42 11 -47 11
-82 1z"/>
<path d="M4270 3750 c-43 -43 -14 -120 46 -120 43 0 74 29 74 70 0 17 -9 39
-20 50 -11 11 -33 20 -50 20 -17 0 -39 -9 -50 -20z"/>
<path d="M2704 3646 c-10 -26 4 -48 28 -44 17 2 23 10 23 28 0 18 -6 26 -23
28 -13 2 -25 -3 -28 -12z"/>
<path d="M2210 3589 c-15 -27 -5 -66 19 -79 50 -26 103 39 66 80 -24 27 -71
26 -85 -1z"/>
<path d="M1316 3561 c-65 -43 -88 -116 -58 -184 23 -52 64 -84 118 -92 51 -8
121 27 148 74 39 68 15 164 -52 204 -40 23 -119 22 -156 -2z"/>
<path d="M3185 3520 c-11 -17 5 -32 21 -19 7 6 11 15 8 20 -7 12 -21 11 -29
-1z"/>
<path d="M261 3498 c-97 -50 -109 -170 -27 -247 39 -37 128 -41 176 -9 68 46
90 136 48 198 -52 76 -123 97 -197 58z"/>
<path d="M4963 3464 c-18 -9 -39 -31 -48 -51 -33 -69 18 -153 92 -153 68 0
112 42 113 105 0 47 -19 79 -60 100 -36 19 -57 19 -97 -1z"/>
<path d="M3941 3426 c-17 -20 -2 -46 25 -46 29 0 41 24 24 45 -16 19 -34 19
-49 1z"/>
<path d="M1785 3365 c-52 -51 -11 -135 66 -135 30 0 69 44 69 78 0 74 -84 109
-135 57z"/>
<path d="M650 3334 c-105 -45 -141 -166 -77 -262 31 -47 80 -72 142 -72 191 0
244 252 70 331 -48 22 -88 23 -135 3z"/>
<path d="M4537 3322 c-26 -28 -21 -69 9 -89 24 -15 29 -15 53 -2 16 9 27 25
29 43 7 55 -56 87 -91 48z"/>
<path d="M1085 3166 c-43 -18 -93 -79 -101 -122 -13 -70 26 -148 90 -178 78
-37 163 -11 214 64 20 29 23 44 20 93 -5 69 -27 103 -88 135 -50 25 -91 27
-135 8z"/>
<path d="M114 3011 c-47 -29 -64 -59 -64 -116 0 -62 25 -106 73 -128 46 -22
79 -21 125 2 47 24 72 67 72 123 0 108 -115 175 -206 119z"/>
<path d="M1480 3003 c-41 -37 -48 -86 -20 -131 61 -99 200 -60 200 55 0 36 -6
50 -29 74 -41 40 -107 41 -151 2z"/>
<path d="M4192 2988 c-8 -8 -9 -15 0 -25 14 -17 39 2 31 23 -6 17 -15 18 -31
2z"/>
<path d="M508 2850 c-60 -33 -83 -74 -83 -151 0 -56 4 -71 27 -101 38 -50 88
-71 155 -66 120 10 187 127 139 242 -34 82 -156 121 -238 76z"/>
<path d="M965 2696 c-42 -18 -93 -79 -101 -121 -31 -170 157 -275 285 -159
141 127 -10 356 -184 280z"/>
<path d="M1368 2575 c-14 -8 -36 -30 -47 -49 -69 -111 54 -251 168 -191 49 25
81 72 81 118 0 104 -111 171 -202 122z"/>
<path d="M102 2523 c-32 -6 -88 -65 -95 -101 -16 -80 50 -162 130 -162 67 0
133 67 133 135 0 36 -30 88 -62 108 -27 18 -74 26 -106 20z"/>
<path d="M500 2357 c-89 -47 -116 -163 -56 -242 36 -46 74 -65 134 -65 87 0
153 62 159 152 5 71 -25 124 -87 156 -56 28 -96 28 -150 -1z"/>
<path d="M978 2200 c-20 -11 -46 -34 -59 -51 -23 -33 -36 -110 -25 -153 9 -36
65 -96 103 -112 126 -53 264 63 239 201 -8 40 -55 99 -97 121 -39 20 -117 17
-161 -6z"/>
<path d="M1422 2110 c-91 -56 -97 -200 -9 -262 41 -29 114 -35 161 -13 109 52
117 212 14 275 -44 27 -122 27 -166 0z"/>
<path d="M132 2003 c-81 -40 -82 -167 -2 -208 36 -19 61 -19 105 -1 85 36 86
169 1 210 -42 20 -62 20 -104 -1z"/>
<path d="M4260 2010 c0 -5 5 -10 10 -10 6 0 10 5 10 10 0 6 -4 10 -10 10 -5 0
-10 -4 -10 -10z"/>
<path d="M3724 1936 c-37 -37 -43 -70 -20 -115 31 -59 102 -67 153 -16 32 32
35 40 30 73 -8 47 -55 92 -98 92 -22 0 -41 -10 -65 -34z"/>
<path d="M615 1876 c-93 -42 -122 -160 -58 -237 73 -86 184 -77 251 21 42 61
20 151 -49 202 -33 24 -106 32 -144 14z"/>
<path d="M1158 1740 c-60 -33 -83 -74 -83 -152 0 -74 16 -105 75 -145 39 -27
112 -31 164 -9 113 47 128 224 24 297 -44 32 -130 36 -180 9z"/>
<path d="M1703 1729 c-74 -21 -132 -117 -117 -194 14 -77 95 -145 172 -145 45
0 105 33 137 75 71 92 21 233 -93 265 -43 12 -56 12 -99 -1z"/>
<path d="M3433 1590 c-113 -69 -64 -240 70 -240 44 0 53 4 88 39 34 33 39 45
39 82 0 56 -16 87 -59 116 -42 28 -95 30 -138 3z"/>
<path d="M294 1520 c-65 -27 -84 -112 -35 -161 73 -72 196 1 164 97 -16 49
-84 83 -129 64z"/>
<path d="M2087 1446 c-127 -46 -159 -213 -59 -298 65 -55 142 -59 213 -13 42
27 79 96 79 146 -1 117 -125 204 -233 165z"/>
<path d="M808 1415 c-46 -25 -71 -79 -66 -137 5 -45 11 -57 46 -90 36 -33 47
-38 89 -38 113 0 180 109 129 208 -33 65 -131 93 -198 57z"/>
<path d="M3012 1360 c-100 -61 -95 -211 8 -262 68 -35 143 -14 192 53 47 62
24 167 -45 209 -42 26 -112 26 -155 0z"/>
<path d="M1462 1343 c-49 -24 -75 -68 -80 -132 -4 -61 17 -105 69 -144 64 -47
170 -25 221 45 31 45 33 134 2 175 -52 70 -138 93 -212 56z"/>
<path d="M2545 1316 c-43 -18 -93 -79 -101 -122 -20 -110 82 -216 194 -199 50
7 108 53 128 102 57 136 -86 278 -221 219z"/>
<path d="M3746 1204 c-9 -8 -16 -22 -16 -29 0 -18 27 -45 45 -45 16 0 45 27
45 41 0 43 -45 63 -74 33z"/>
<path d="M1885 1056 c-76 -33 -109 -116 -76 -190 30 -69 98 -103 168 -84 105
28 144 148 76 229 -46 54 -109 71 -168 45z"/>
<path d="M512 1043 c-12 -10 -24 -30 -28 -45 -5 -22 0 -33 24 -58 38 -38 66
-38 103 -1 34 35 36 59 8 95 -25 31 -76 35 -107 9z"/>
<path d="M1119 1017 c-73 -49 -87 -132 -33 -197 70 -82 209 -43 230 65 13 69
-59 155 -131 155 -18 0 -47 -10 -66 -23z"/>
<path d="M4744 1005 c-16 -24 -16 -27 1 -45 32 -35 75 -19 75 27 0 21 -25 43
-49 43 -6 0 -18 -11 -27 -25z"/>
<path d="M3311 954 c-28 -35 -26 -69 4 -99 51 -52 125 -20 125 53 0 48 -24 72
-73 72 -27 0 -41 -7 -56 -26z"/>
<path d="M2319 861 c-35 -35 -39 -44 -39 -90 0 -44 5 -56 33 -87 102 -111 281
12 212 146 -25 48 -62 70 -118 70 -44 0 -53 -4 -88 -39z"/>
<path d="M2843 861 c-40 -25 -53 -49 -53 -101 0 -118 172 -139 210 -26 30 92
-76 178 -157 127z"/>
<path d="M1503 700 c-91 -55 -45 -204 63 -204 66 0 114 50 114 119 0 29 -8 45
-34 71 -40 40 -92 46 -143 14z"/>
<path d="M3870 669 c0 -5 5 -7 10 -4 6 3 10 8 10 11 0 2 -4 4 -10 4 -5 0 -10
-5 -10 -11z"/>
<path d="M840 640 c-24 -24 -25 -38 -4 -68 18 -27 55 -29 77 -4 22 24 21 55
-1 75 -25 22 -48 21 -72 -3z"/>
<path d="M4435 620 c-11 -17 5 -50 24 -50 24 0 43 23 35 44 -7 18 -49 22 -59
6z"/>
<path d="M1945 465 c-36 -35 -34 -88 4 -126 37 -37 79 -38 120 -3 25 21 31 33
31 65 0 55 -34 89 -90 89 -30 0 -47 -6 -65 -25z"/>
<path d="M3425 450 c-4 -7 -3 -16 3 -22 14 -14 45 -2 40 15 -6 16 -34 21 -43
7z"/>
<path d="M2446 349 c-48 -38 -23 -109 38 -109 60 0 88 68 46 110 -26 26 -51
25 -84 -1z"/>
<path d="M2946 341 c-25 -28 -5 -63 32 -59 30 3 42 39 22 64 -17 19 -34 18
-54 -5z"/>
<path d="M1233 304 c-6 -17 6 -45 23 -51 5 -2 19 3 29 11 16 12 18 18 9 33
-15 24 -52 29 -61 7z"/>
<path d="M4067 304 c-14 -15 -6 -34 14 -34 14 0 19 5 17 17 -3 18 -20 27 -31
17z"/>
<path d="M1687 64 c-9 -10 2 -24 19 -24 8 0 14 7 14 15 0 15 -21 21 -33 9z"/>
<path d="M3624 59 c-10 -17 13 -36 27 -22 12 12 4 33 -11 33 -5 0 -12 -5 -16
-11z"/>
</g>
</svg>
